<svg xmlns="http://www.w3.org/2000/svg" width="1600" height="1100" viewBox="0 0 1600 1100"><defs><marker id="arrow" markerWidth="7" markerHeight="7" refX="5" refY="3" orient="auto"><path d="M0,0 L6,3 L0,6" fill="#ac743a"/></marker></defs><g font-family="Microsoft YaHei, Noto Sans CJK SC, sans-serif"><rect x="0" y="0" width="1600" height="1100" fill="#f7f4eb" stroke="none" stroke-width="1" stroke-dasharray=""/><text x="70" y="68" font-size="20" fill="#8b714b" text-anchor="start" font-weight="normal">莞香展馆 / 层院·时间剖面</text><text x="70" y="130" font-size="42" fill="#294843" text-anchor="start" font-weight="600">A08  院廊与内外关系</text><text x="70" y="181" font-size="22" fill="#294843" text-anchor="start" font-weight="normal">露天庭院与四向环廊连接展厅；观看联系与可通行开口分别表达。</text><rect x="300" y="706" width="440" height="44" fill="#e4e8d9" stroke="none" stroke-width="1" stroke-dasharray=""/><rect x="300" y="442" width="440" height="44" fill="#e4e8d9" stroke="none" stroke-width="1" stroke-dasharray=""/><rect x="300" y="486" width="44" height="220" fill="#e4e8d9" stroke="none" stroke-width="1" stroke-dasharray=""/><rect x="696" y="486" width="44" height="220" fill="#e4e8d9" stroke="none" stroke-width="1" stroke-dasharray=""/><rect x="300" y="750" width="220" height="154" fill="#efede4" stroke="none" stroke-width="1" stroke-dasharray=""/><rect x="80" y="530" width="220" height="220" fill="#efede4" stroke="none" stroke-width="1" stroke-dasharray=""/><rect x="80" y="266" width="220" height="264" fill="#efede4" stroke="none" stroke-width="1" stroke-dasharray=""/><rect x="300" y="266" width="440" height="176" fill="#efede4" stroke="none" stroke-width="1" stroke-dasharray=""/><rect x="740" y="442" width="220" height="308" fill="#efede4" stroke="none" stroke-width="1" stroke-dasharray=""/><rect x="520" y="750" width="440" height="154" fill="#efede4" stroke="none" stroke-width="1" stroke-dasharray=""/><rect x="80" y="750" width="220" height="154" fill="#efede4" stroke="none" stroke-width="1" stroke-dasharray=""/><rect x="740" y="266" width="220" height="176" fill="#efede4" stroke="none" stroke-width="1" stroke-dasharray=""/><rect x="344" y="486" width="352" height="220" fill="#fafaf4" stroke="#91a192" stroke-width="1" stroke-dasharray="5,5"/><rect x="80" y="899.6" width="220" height="4.4" fill="#496157" stroke="none" stroke-width="1" stroke-dasharray=""/><rect x="300" y="899.6" width="77.0" height="4.4" fill="#496157" stroke="none" stroke-width="1" stroke-dasharray=""/><rect x="443.0" y="899.6" width="270.6" height="4.4" fill="#496157" stroke="none" stroke-width="1" stroke-dasharray=""/><rect x="766.4" y="899.6" width="193.60000000000002" height="4.4" fill="#496157" stroke="none" stroke-width="1" stroke-dasharray=""/><rect x="80.0" y="750" width="4.4" height="154" fill="#496157" stroke="none" stroke-width="1" stroke-dasharray=""/><rect x="80.0" y="530" width="4.4" height="220" fill="#496157" stroke="none" stroke-width="1" stroke-dasharray=""/><rect x="80.0" y="442" width="4.4" height="88" fill="#496157" stroke="none" stroke-width="1" stroke-dasharray=""/><rect x="80.0" y="398" width="4.4" height="44" fill="#496157" stroke="none" stroke-width="1" stroke-dasharray=""/><rect x="80.0" y="266" width="4.4" height="88" fill="#496157" stroke="none" stroke-width="1" stroke-dasharray=""/><rect x="955.5999999999999" y="750" width="4.4" height="154" fill="#496157" stroke="none" stroke-width="1" stroke-dasharray=""/><rect x="955.5999999999999" y="596" width="4.4" height="154" fill="#496157" stroke="none" stroke-width="1" stroke-dasharray=""/><rect x="955.5999999999999" y="530" width="4.4" height="22" fill="#496157" stroke="none" stroke-width="1" stroke-dasharray=""/><rect x="955.5999999999999" y="442" width="4.4" height="88" fill="#496157" stroke="none" stroke-width="1" stroke-dasharray=""/><rect x="955.5999999999999" y="435.4" width="4.4" height="6.600000000000016" fill="#496157" stroke="none" stroke-width="1" stroke-dasharray=""/><rect x="955.5999999999999" y="398.0" width="4.4" height="6.600000000000016" fill="#496157" stroke="none" stroke-width="1" stroke-dasharray=""/><rect x="955.5999999999999" y="266" width="4.4" height="132" fill="#496157" stroke="none" stroke-width="1" stroke-dasharray=""/><rect x="80" y="266.0000000000001" width="220" height="4.4" fill="#496157" stroke="none" stroke-width="1" stroke-dasharray=""/><rect x="300" y="266.0000000000001" width="440" height="4.4" fill="#496157" stroke="none" stroke-width="1" stroke-dasharray=""/><rect x="740" y="266.0000000000001" width="220" height="4.4" fill="#496157" stroke="none" stroke-width="1" stroke-dasharray=""/><rect x="297.8" y="849.0" width="4.399999999999984" height="50.599999999999994" fill="#496157" stroke="none" stroke-width="1" stroke-dasharray=""/><rect x="297.8" y="750" width="4.399999999999984" height="66" fill="#496157" stroke="none" stroke-width="1" stroke-dasharray=""/><rect x="297.8" y="662" width="4.399999999999984" height="88" fill="#496157" stroke="none" stroke-width="1" stroke-dasharray=""/><rect x="297.8" y="530" width="4.399999999999984" height="88" fill="#496157" stroke="none" stroke-width="1" stroke-dasharray=""/><rect x="297.8" y="508" width="4.399999999999984" height="22" fill="#496157" stroke="none" stroke-width="1" stroke-dasharray=""/><rect x="297.8" y="442" width="4.399999999999984" height="22" fill="#496157" stroke="none" stroke-width="1" stroke-dasharray=""/><rect x="737.8" y="728" width="4.399999999999984" height="22" fill="#496157" stroke="none" stroke-width="1" stroke-dasharray=""/><rect x="737.8" y="662" width="4.399999999999984" height="22" fill="#496157" stroke="none" stroke-width="1" stroke-dasharray=""/><rect x="737.8" y="607.0" width="4.399999999999984" height="11.0" fill="#496157" stroke="none" stroke-width="1" stroke-dasharray=""/><rect x="739.3399999999999" y="530.0" width="1.3199999999999719" height="77.0" fill="#9aada8" stroke="none" stroke-width="1" stroke-dasharray=""/><rect x="739.3399999999999" y="519.0" width="1.3199999999999719" height="11.0" fill="#9aada8" stroke="none" stroke-width="1" stroke-dasharray=""/><rect x="737.8" y="442.0" width="4.399999999999984" height="77.0" fill="#496157" stroke="none" stroke-width="1" stroke-dasharray=""/><rect x="737.8" y="398" width="4.399999999999984" height="44" fill="#496157" stroke="none" stroke-width="1" stroke-dasharray=""/><rect x="737.8" y="376" width="4.399999999999984" height="22" fill="#496157" stroke="none" stroke-width="1" stroke-dasharray=""/><rect x="737.8" y="270.4" width="4.399999999999984" height="79.20000000000003" fill="#496157" stroke="none" stroke-width="1" stroke-dasharray=""/><rect x="84.4" y="747.8" width="215.60000000000002" height="4.400000000000004" fill="#496157" stroke="none" stroke-width="1" stroke-dasharray=""/><rect x="84.4" y="527.8000000000001" width="83.6" height="4.399999999999984" fill="#496157" stroke="none" stroke-width="1" stroke-dasharray=""/><rect x="212" y="527.8000000000001" width="88" height="4.399999999999984" fill="#496157" stroke="none" stroke-width="1" stroke-dasharray=""/><rect x="300" y="747.8" width="88" height="4.400000000000004" fill="#496157" stroke="none" stroke-width="1" stroke-dasharray=""/><rect x="432" y="747.8" width="198" height="4.400000000000004" fill="#496157" stroke="none" stroke-width="1" stroke-dasharray=""/><rect x="674" y="747.8" width="66" height="4.400000000000004" fill="#496157" stroke="none" stroke-width="1" stroke-dasharray=""/><rect x="740" y="747.8" width="215.59999999999994" height="4.400000000000004" fill="#496157" stroke="none" stroke-width="1" stroke-dasharray=""/><rect x="517.8" y="860.0" width="4.399999999999984" height="39.6" fill="#496157" stroke="none" stroke-width="1" stroke-dasharray=""/><rect x="517.8" y="750" width="4.399999999999984" height="66" fill="#496157" stroke="none" stroke-width="1" stroke-dasharray=""/><rect x="300" y="439.80000000000007" width="176" height="4.399999999999984" fill="#496157" stroke="none" stroke-width="1" stroke-dasharray=""/><rect x="564" y="439.80000000000007" width="176" height="4.399999999999984" fill="#496157" stroke="none" stroke-width="1" stroke-dasharray=""/><rect x="740" y="439.80000000000007" width="215.59999999999994" height="4.399999999999984" fill="#496157" stroke="none" stroke-width="1" stroke-dasharray=""/><rect x="740" y="395.80000000000007" width="22" height="4.399999999999984" fill="#496157" stroke="none" stroke-width="1" stroke-dasharray=""/><rect x="784" y="395.80000000000007" width="66" height="4.399999999999984" fill="#496157" stroke="none" stroke-width="1" stroke-dasharray=""/><rect x="872" y="395.80000000000007" width="44" height="4.399999999999984" fill="#496157" stroke="none" stroke-width="1" stroke-dasharray=""/><rect x="938" y="395.80000000000007" width="17.599999999999937" height="4.399999999999984" fill="#496157" stroke="none" stroke-width="1" stroke-dasharray=""/><rect x="825.8" y="270.4" width="4.4000000000000625" height="127.60000000000002" fill="#496157" stroke="none" stroke-width="1" stroke-dasharray=""/><rect x="913.8" y="270.4" width="4.4000000000000625" height="127.60000000000002" fill="#496157" stroke="none" stroke-width="1" stroke-dasharray=""/><rect x="253.8" y="838.0" width="4.399999999999984" height="61.599999999999994" fill="#496157" stroke="none" stroke-width="1" stroke-dasharray=""/><rect x="253.8" y="750.0" width="4.399999999999984" height="55.0" fill="#496157" stroke="none" stroke-width="1" stroke-dasharray=""/><rect x="84.4" y="835.8" width="17.6" height="4.400000000000004" fill="#496157" stroke="none" stroke-width="1" stroke-dasharray=""/><rect x="128.4" y="835.8" width="61.599999999999994" height="4.400000000000004" fill="#496157" stroke="none" stroke-width="1" stroke-dasharray=""/><rect x="216.4" y="835.8" width="39.599999999999994" height="4.400000000000004" fill="#496157" stroke="none" stroke-width="1" stroke-dasharray=""/><rect x="84.4" y="802.8" width="17.6" height="4.400000000000004" fill="#496157" stroke="none" stroke-width="1" stroke-dasharray=""/><rect x="165.8" y="838.0" width="4.399999999999994" height="61.599999999999994" fill="#496157" stroke="none" stroke-width="1" stroke-dasharray=""/><rect x="165.8" y="750.0" width="4.399999999999994" height="55.0" fill="#496157" stroke="none" stroke-width="1" stroke-dasharray=""/><rect x="339.6" y="706.0" width="4.4" height="4.4" fill="#496157" stroke="none" stroke-width="1" stroke-dasharray=""/><rect x="517.8" y="706.0" width="4.4" height="4.4" fill="#496157" stroke="none" stroke-width="1" stroke-dasharray=""/><rect x="696" y="706.0" width="4.4" height="4.4" fill="#496157" stroke="none" stroke-width="1" stroke-dasharray=""/><rect x="339.6" y="593.8" width="4.4" height="4.4" fill="#496157" stroke="none" stroke-width="1" stroke-dasharray=""/><rect x="696" y="593.8" width="4.4" height="4.4" fill="#496157" stroke="none" stroke-width="1" stroke-dasharray=""/><rect x="339.6" y="481.6" width="4.4" height="4.4" fill="#496157" stroke="none" stroke-width="1" stroke-dasharray=""/><rect x="517.8" y="481.6" width="4.4" height="4.4" fill="#496157" stroke="none" stroke-width="1" stroke-dasharray=""/><rect x="696" y="481.6" width="4.4" height="4.4" fill="#496157" stroke="none" stroke-width="1" stroke-dasharray=""/><rect x="128.4" y="805.99" width="26.84" height="1.21" fill="#496157" stroke="none" stroke-width="1" stroke-dasharray=""/><rect x="128.4" y="802.8" width="26.84" height="1.21" fill="#496157" stroke="none" stroke-width="1" stroke-dasharray=""/><rect x="155.24" y="802.8" width="34.760000000000005" height="4.4" fill="#496157" stroke="none" stroke-width="1" stroke-dasharray=""/><rect x="216.4" y="805.99" width="26.84" height="1.21" fill="#496157" stroke="none" stroke-width="1" stroke-dasharray=""/><rect x="216.4" y="802.8" width="26.84" height="1.21" fill="#496157" stroke="none" stroke-width="1" stroke-dasharray=""/><rect x="243.24" y="802.8" width="12.760000000000002" height="4.4" fill="#496157" stroke="none" stroke-width="1" stroke-dasharray=""/><text x="313.2" y="776.4" font-size="19" fill="#294843" text-anchor="start" font-weight="normal">序厅</text><text x="93.2" y="556.4" font-size="19" fill="#294843" text-anchor="start" font-weight="normal">寻香</text><text x="93.2" y="292.4" font-size="19" fill="#294843" text-anchor="start" font-weight="normal">识香·样本</text><text x="313.2" y="292.4" font-size="19" fill="#294843" text-anchor="start" font-weight="normal">识香·核心</text><text x="753.2" y="468.4" font-size="19" fill="#294843" text-anchor="start" font-weight="normal">品香</text><text x="533.2" y="776.4" font-size="19" fill="#294843" text-anchor="start" font-weight="normal">传香·工坊</text><text x="93.2" y="776.4" font-size="19" fill="#294843" text-anchor="start" font-weight="normal">公共服务</text><text x="753.2" y="292.4" font-size="19" fill="#294843" text-anchor="start" font-weight="normal">后勤管理</text><text x="520" y="596" font-size="25" fill="#294843" text-anchor="middle" font-weight="normal">露天庭院</text><text x="520" y="630" font-size="19" fill="#294843" text-anchor="middle" font-weight="normal">16 × 10 m</text><rect x="300" y="706" width="440" height="44" fill="#cdd6bc" stroke="#819579" stroke-width="1" stroke-dasharray=""/><rect x="300" y="442" width="440" height="44" fill="#cdd6bc" stroke="#819579" stroke-width="1" stroke-dasharray=""/><rect x="300" y="486" width="44" height="220" fill="#cdd6bc" stroke="#819579" stroke-width="1" stroke-dasharray=""/><rect x="696" y="486" width="44" height="220" fill="#cdd6bc" stroke="#819579" stroke-width="1" stroke-dasharray=""/><rect x="392.4" y="591.6" width="66.0" height="66.0" fill="#a4b591" stroke="#6c876a" stroke-width="1" stroke-dasharray=""/><rect x="590.4" y="525.6" width="66.0" height="66.0" fill="#a4b591" stroke="#6c876a" stroke-width="1" stroke-dasharray=""/><path d="M520,728 L520,640" stroke="#ac743a" stroke-width="3" marker-end="url(#arrow)"/><path d="M718,574 L630,574" stroke="#ac743a" stroke-width="3" marker-end="url(#arrow)"/><path d="M520,464 L520,530" stroke="#ac743a" stroke-width="3" marker-end="url(#arrow)"/><path d="M322,596 L410,596" stroke="#ac743a" stroke-width="3" marker-end="url(#arrow)"/><text x="1030" y="285" font-size="28" fill="#294843" text-anchor="start" font-weight="600">从展厅到庭院</text><text x="1030" y="350" font-size="23" fill="#294843" text-anchor="start" font-weight="600">室内展陈</text><text x="1030" y="385" font-size="18" fill="#68776b" text-anchor="start" font-weight="normal">一般吊顶下皮3.6m，核心4.8m</text><text x="1030" y="450" font-size="23" fill="#294843" text-anchor="start" font-weight="600">有顶环廊</text><text x="1030" y="485" font-size="18" fill="#68776b" text-anchor="start" font-weight="normal">控制宽2.0m，吊顶下皮2.9m</text><text x="1030" y="550" font-size="23" fill="#294843" text-anchor="start" font-weight="600">露天庭院</text><text x="1030" y="585" font-size="18" fill="#68776b" text-anchor="start" font-weight="normal">16×10m，两处种植岛</text><text x="1030" y="650" font-size="23" fill="#294843" text-anchor="start" font-weight="600">地坪与排水</text><text x="1030" y="685" font-size="18" fill="#68776b" text-anchor="start" font-weight="normal">边缘齐平，庭院向内找坡</text><text x="1030" y="750" font-size="23" fill="#294843" text-anchor="start" font-weight="600">品香界面</text><text x="1030" y="785" font-size="18" fill="#68776b" text-anchor="start" font-weight="normal">玻璃联系视线，通行走邻近开口</text><text x="1030" y="850" font-size="23" fill="#294843" text-anchor="start" font-weight="600">图示箭头</text><text x="1030" y="885" font-size="18" fill="#68776b" text-anchor="start" font-weight="normal">表达观看联系，不是通风模拟</text><text x="70" y="1018" font-size="18" fill="#6a7269" text-anchor="start" font-weight="normal">吊顶下皮不直接等同全部设备下净高；细部与排水见D04/D05/D07，植物品种未落实。</text></g></svg>